<svg xmlns="http://www.w3.org/2000/svg" width="18.725" height="18.725" viewBox="0 0 18.725 18.725">
  <g id="Group_15" data-name="Group 15" transform="translate(-1483 -305)">
    <path id="Icon_material-gif" data-name="Icon material-gif" d="M12.96,13.5h1.26v5.04H12.96Zm-2.1,0H8.34a.842.842,0,0,0-.84.84V17.7a.842.842,0,0,0,.84.84h2.52a.842.842,0,0,0,.84-.84V16.02H10.44v1.26H8.76V14.76H11.7v-.42A.842.842,0,0,0,10.86,13.5Zm8.4,1.26V13.5H15.48v5.04h1.26V16.86h1.68V15.6H16.74v-.84Z" transform="translate(1479.5 298.5)" fill="#23a0ff"/>
    <g id="Icon_feather-image" data-name="Icon feather-image" transform="translate(1479.5 301.5)">
      <path id="Path_2" data-name="Path 2" d="M6.358,4.5H19.366a1.858,1.858,0,0,1,1.858,1.858V19.366a1.858,1.858,0,0,1-1.858,1.858H6.358A1.858,1.858,0,0,1,4.5,19.366V6.358A1.858,1.858,0,0,1,6.358,4.5Z" fill="none" stroke="#23a0ff" stroke-linecap="round" stroke-linejoin="round" stroke-width="2"/>
    </g>
  </g>
</svg>
