<svg xmlns="http://www.w3.org/2000/svg" width="19.139" height="19.139" viewBox="0 0 19.139 19.139">
  <g id="Icon_feather-image" data-name="Icon feather-image" transform="translate(-3.5 -3.5)">
    <path id="Path_2" data-name="Path 2" d="M6.358,4.5H19.366a1.858,1.858,0,0,1,1.858,1.858V19.366a1.858,1.858,0,0,1-1.858,1.858H6.358A1.858,1.858,0,0,1,4.5,19.366V6.358A1.858,1.858,0,0,1,6.358,4.5Z" fill="none" stroke="#23a0ff" stroke-linecap="round" stroke-linejoin="round" stroke-width="2"/>
    <path id="Path_3" data-name="Path 3" d="M13.287,11.894A1.394,1.394,0,1,1,11.894,10.5,1.394,1.394,0,0,1,13.287,11.894Z" transform="translate(-2.283 -2.283)" fill="none" stroke="#23a0ff" stroke-linecap="round" stroke-linejoin="round" stroke-width="2"/>
    <path id="Path_4" data-name="Path 4" d="M22.366,19.646,17.721,15,7.5,25.221" transform="translate(-1.142 -3.996)" fill="none" stroke="#23a0ff" stroke-linecap="round" stroke-linejoin="round" stroke-width="2"/>
  </g>
</svg>
