<svg xmlns="http://www.w3.org/2000/svg" width="122.275" height="24" viewBox="0 0 122.275 24">
  <g id="Group_1" data-name="Group 1" transform="translate(-1030.725 -230)">
    <path id="Icon_ionic-ios-heart-empty" data-name="Icon ionic-ios-heart-empty" d="M19.154,3.938H19.1a5.906,5.906,0,0,0-4.931,2.7,5.906,5.906,0,0,0-4.931-2.7H9.188A5.868,5.868,0,0,0,3.375,9.8a12.635,12.635,0,0,0,2.481,6.888A43.479,43.479,0,0,0,14.171,24.7a43.479,43.479,0,0,0,8.315-8.009A12.635,12.635,0,0,0,24.967,9.8,5.868,5.868,0,0,0,19.154,3.938Zm2.159,11.9a39.811,39.811,0,0,1-7.142,7.038,39.87,39.87,0,0,1-7.142-7.043A11.2,11.2,0,0,1,4.828,9.8,4.4,4.4,0,0,1,9.2,5.4h.047a4.352,4.352,0,0,1,2.133.561,4.535,4.535,0,0,1,1.578,1.479,1.458,1.458,0,0,0,2.44,0,4.581,4.581,0,0,1,1.578-1.479A4.352,4.352,0,0,1,19.107,5.4h.047A4.4,4.4,0,0,1,23.524,9.8,11.339,11.339,0,0,1,21.313,15.834Z" transform="translate(1027.35 228.063)" fill="#fff"/>
    <text id="BemSocial" transform="translate(1057 249)" fill="#fff" font-size="20" font-family="Roboto-Medium, Roboto, Sans-serif" font-weight="500"><tspan x="0" y="0">BemSocial</tspan></text>
  </g>
</svg>
