<svg xmlns="http://www.w3.org/2000/svg" width="18.725" height="18.725" viewBox="0 0 18.725 18.725">
  <g id="Group_16" data-name="Group 16" transform="translate(-1510 -305)">
    <g id="Icon_ionic-ios-videocam" data-name="Icon ionic-ios-videocam" transform="translate(1511.836 302.52)">
      <path id="Path_5" data-name="Path 5" d="M27.068,10.8a.411.411,0,0,0-.224.065l-2.082,1.314a.206.206,0,0,0-.1.173v1.83a.206.206,0,0,0,.1.173l2.082,1.314a.433.433,0,0,0,.224.065h.5a.2.2,0,0,0,.207-.2V11a.207.207,0,0,0-.207-.2Z" transform="translate(-14.741 -1.184)" fill="#23a0ff"/>
      <path id="Path_6" data-name="Path 6" d="M8.063,15.163H3.49a1.244,1.244,0,0,1-1.24-1.237V10.237A1.242,1.242,0,0,1,3.487,9H8.061A1.242,1.242,0,0,1,9.3,10.237v3.685A1.238,1.238,0,0,1,8.063,15.163Z" fill="#23a0ff"/>
    </g>
    <g id="Icon_feather-image" data-name="Icon feather-image" transform="translate(1506.5 301.5)">
      <path id="Path_2" data-name="Path 2" d="M6.358,4.5H19.366a1.858,1.858,0,0,1,1.858,1.858V19.366a1.858,1.858,0,0,1-1.858,1.858H6.358A1.858,1.858,0,0,1,4.5,19.366V6.358A1.858,1.858,0,0,1,6.358,4.5Z" fill="none" stroke="#23a0ff" stroke-linecap="round" stroke-linejoin="round" stroke-width="2"/>
    </g>
  </g>
</svg>
